<?xml version="1.0" standalone="yes"?>
<svg xmlns="http://www.w3.org/2000/svg" width="323" height="293">
<path style="fill:#ffffff; stroke:none;" d="M0 0L0 293L323 293L323 0L0 0z"/>
<path style="fill:#d8ece0; stroke:none;" d="M162.667 7.33334C162.222 7.77789 163.278 7.72208 163.333 7.66666C163.778 7.22229 162.722 7.27777 162.667 7.33334z"/>
<path style="fill:#93cdab; stroke:none;" d="M164 7C169.707 9.39487 177.846 8 184 8L225 8C219.293 5.60513 211.154 7 205 7L164 7z"/>
<path style="fill:#2b9d59; stroke:none;" d="M154 28C149.518 28 143.662 27.0569 140.603 31.1481C137.183 35.7231 140.739 42.2543 132.995 42.9414C124.137 43.7274 114.895 43 106 43L52 43C45.6672 43 39.3327 42.9572 33 43.0008C29.5013 43.0248 25.908 43.0654 23.6034 46.1481C21.5394 48.909 22.0015 52.759 22 56L22 77L22 155L22 175C22.0054 178.248 21.6631 182.02 23.7423 184.772C28.1345 190.584 41.5529 188 48 188L47 191C39.5784 189.233 30.4202 189.286 27.6528 198.004C26.3757 202.027 27 206.834 27 211C27 229.483 29.844 244.924 36.7901 262C38.6913 266.674 35.9794 274.548 39.0278 278.397C40.8913 280.75 45.3832 279.999 48 280L74 280L97 280C99.6934 280 104.125 280.772 106.397 278.972C108.565 277.255 107.995 273.42 108 271C108.013 264.771 108.429 258.93 110.547 253C116.827 235.416 133.782 222.941 139.377 205C141.175 199.233 140.74 193.853 140 188L177 188C172.283 207.812 188.675 224.851 199.116 240C203.463 246.307 207.578 253.151 207.96 261C208.181 265.55 205.921 276.038 210.318 278.972C212.667 280.54 216.33 279.999 219 280L239 280L267 280C269.91 280 274.948 280.912 277.397 278.972C281.091 276.046 278.473 266.3 279.966 262C285.573 245.849 289.999 231.423 290 214C290 209.22 290.76 203.638 289.427 199C288.047 194.196 283.951 190.657 279 190.109C275.252 189.694 271.654 191.033 269 188C275.518 188 289.016 190.651 292.821 183.891C294.449 180.999 293.999 177.189 294 174L294 154L294 78L294 56C293.999 52.759 294.461 48.909 292.397 46.1481C290.092 43.0654 286.499 43.0248 283 43.0008C276.667 42.9572 270.333 43 264 43L210 43C201.105 43 191.863 43.7274 183.005 42.9414C175.243 42.2527 178.885 35.7465 175.397 31.2284C172.294 27.2099 166.478 28.0005 162 28C162.003 23.9763 161.515 19.3198 165.148 16.6034C168.539 14.0683 174.026 15 178 15L208 15C212.817 15 218.186 15.6621 222.941 14.8519C224.933 14.5126 226.827 13.4241 226.534 11.0895C226.186 8.32056 223.197 8.11636 220.995 8.01929C214.688 7.74115 208.313 8 202 8L171 8C165.7 8.00034 160.314 7.59381 156.653 12.189C153.148 16.5872 154 22.7452 154 28z"/>
<path style="fill:#bce0cb; stroke:none;" d="M226 8L227 9L226 8z"/>
<path style="fill:#82c59d; stroke:none;" d="M159 9L160 10L159 9z"/>
<path style="fill:#76bf94; stroke:none;" d="M227 10L227 13C227.696 11.4463 227.696 11.5537 227 10z"/>
<path style="fill:#92cdaa; stroke:none;" d="M155 13L156 14L155 13z"/>
<path style="fill:#bde1cb; stroke:none;" d="M227 13L228 14L227 13z"/>
<path style="fill:#73be91; stroke:none;" d="M226 14L227 15L226 14z"/>
<path style="fill:#91cca9; stroke:none;" d="M154 15L155 16L154 15z"/>
<path style="fill:#37a362; stroke:none;" d="M165 15C170.463 17.2921 178.113 16 184 16L225 16C219.538 13.7079 211.887 15 206 15L165 15z"/>
<path style="fill:#a8d7bb; stroke:none;" d="M225 15L226 16L225 15z"/>
<path style="fill:#e1f1e8; stroke:none;" d="M164 16C169.463 18.2921 177.113 17 183 17L224 17C218.538 14.7079 210.887 16 205 16L164 16z"/>
<path style="fill:#c3e3d0; stroke:none;" d="M153 17L153 27C154.346 23.7929 154.346 20.207 153 17M162 18L162 27C163.256 24.0059 163.256 20.9941 162 18z"/>
<path style="fill:#7dc399; stroke:none;" d="M145 27C147.89 28.213 150.874 27.9983 154 28C151.11 26.787 148.126 27.0017 145 27M162 27C164.613 28.0977 167.164 27.9928 170 28C167.387 26.9023 164.835 27.0072 162 27z"/>
<path style="fill:#73be91; stroke:none;" d="M172 28L173 29L172 28z"/>
<path style="fill:#b9dfc9; stroke:none;" d="M141 29L142 30L141 29z"/>
<path style="fill:#b8dec7; stroke:none;" d="M174 29L175 30L174 29z"/>
<path style="fill:#b2dbc2; stroke:none;" d="M140 30L141 31L140 30z"/>
<path style="fill:#afdac1; stroke:none;" d="M175 30L176 31L175 30z"/>
<path style="fill:#7dc399; stroke:none;" d="M138 34L138 42C139.161 39.2302 139.161 36.7698 138 34z"/>
<path style="fill:#7cc399; stroke:none;" d="M177 34L177 42C178.161 39.2302 178.161 36.7698 177 34z"/>
<path style="fill:#39a364; stroke:none;" d="M147 35C153.202 37.6026 162.298 36 169 36C162.798 33.3974 153.702 35 147 35z"/>
<path style="fill:#43a86b; stroke:none;" d="M146 36L146 42C146.951 39.7147 146.951 38.2853 146 36z"/>
<path style="fill:#eef7f2; stroke:none;" d="M147 36L147 42L169 42L169 36L147 36z"/>
<path style="fill:#43a86b; stroke:none;" d="M169 36L169 42C169.951 39.7147 169.951 38.2853 169 36z"/>
<path style="fill:#ffffff; stroke:none;" d="M148 37L148 41L168 41L168 37L148 37z"/>
<path style="fill:#eef7f2; stroke:none;" d="M28 41C31.6987 42.552 36.0172 42 40 42L61 42L138 42C134.301 40.448 129.983 41 126 41L105 41L28 41M178 41C181.699 42.552 186.017 42 190 42L211 42L286 42C282.301 40.448 277.983 41 274 41L253 41L178 41z"/>
<path style="fill:#7ec39a; stroke:none;" d="M28 42L29 43L28 42z"/>
<path style="fill:#39a364; stroke:none;" d="M29 42C32.6987 43.552 37.0172 43 41 43L62 43L138 43C134.301 41.448 129.983 42 126 42L105 42L29 42M147 42C153.202 44.6026 162.298 43 169 43C162.798 40.3974 153.702 42 147 42M178 42C181.699 43.552 186.017 43 190 43L211 43L287 43C283.301 41.448 278.983 42 275 42L254 42L178 42z"/>
<path style="fill:#7fc39a; stroke:none;" d="M287 42L288 43L287 42z"/>
<path style="fill:#badfc9; stroke:none;" d="M25 43L26 44L25 43M290 43L291 44L290 43z"/>
<path style="fill:#a0d4b5; stroke:none;" d="M24 44L25 45L24 44z"/>
<path style="fill:#9ed2b3; stroke:none;" d="M291 44L292 45L291 44z"/>
<path style="fill:#a9d7bb; stroke:none;" d="M23 45L24 46L23 45z"/>
<path style="fill:#a7d6ba; stroke:none;" d="M292 45L293 46L292 45z"/>
<path style="fill:#91cca8; stroke:none;" d="M21 49L21 181C24.4066 172.882 22 159.797 22 151L22 83L22 61C22 57.0172 22.552 52.6987 21 49M294 49L294 181C297.407 172.882 295 159.797 295 151L295 83L295 61C295 57.0172 295.552 52.6987 294 49z"/>
<path style="fill:#7dc399; stroke:none;" d="M30 50C33.6987 51.552 38.0172 51 42 51L65 51C61.3013 49.448 56.9828 50 53 50L30 50z"/>
<path style="fill:#72be90; stroke:none;" d="M65 50C70.951 52.4971 79.5798 51 86 51L130 51L286 51C280.049 48.5029 271.42 50 265 50L221 50L65 50z"/>
<path style="fill:#37a262; stroke:none;" d="M29 51L29 180C32.3062 172.121 30 159.534 30 151L30 84L30 63C30 59.0172 30.552 54.6987 29 51z"/>
<path style="fill:#dff0e5; stroke:none;" d="M30 51L30 180C33.3062 172.121 31 159.534 31 151L31 84L31 63C31 59.0172 31.552 54.6987 30 51z"/>
<path style="fill:#ffffff; stroke:none;" d="M31 51L31 179L80 179L80 173L51 173C47.1288 173 42.3229 173.687 39.3179 170.682C35.6378 167.002 37 159.73 37 155L37 115C37 109.539 35.9497 102.49 42.044 99.858C46.5998 97.8906 53.1366 99 58 99L93 99L216 99L258 99C263.268 99 271.303 97.5167 275.772 100.894C280.216 104.253 279 111.122 279 116L279 156C279 160.879 280.331 168.048 275.852 171.397C272.66 173.783 267.739 173 264 173L236 173L236 179L285 179L285 51L31 51z"/>
<path style="fill:#dff0e6; stroke:none;" d="M285 51L285 180C286.552 176.301 286 171.983 286 168L286 147L286 80C286 71.4661 288.306 58.879 285 51z"/>
<path style="fill:#37a262; stroke:none;" d="M286 51L286 180C289.306 172.121 287 159.534 287 151L287 84L287 63C287 59.0172 287.552 54.6987 286 51z"/>
<path style="fill:#eff8f3; stroke:none;" d="M40 57C46.194 59.5991 55.3141 58 62 58L109 58L275 58C268.806 55.4009 259.686 57 253 57L206 57L40 57z"/>
<path style="fill:#55b07a; stroke:none;" d="M40 58C46.194 60.5991 55.3141 59 62 59L110 59L276 59C269.806 56.4009 260.686 58 254 58L206 58L40 58z"/>
<path style="fill:#b7dec7; stroke:none;" d="M38 59L39 60L38 59z"/>
<path style="fill:#2b9d59; stroke:none;" d="M39.6034 60.0278C37.8638 61.4055 38.0421 64.0191 38.0046 66.0008C37.9181 70.5772 35.6148 85.0393 41.1481 86.6821C46.3813 88.2357 53.5635 87 59 87L97 87L221 87L263 87C266.476 87 274.532 88.4781 276.972 85.3966C278.301 83.7185 277.986 80.992 277.999 79C278.03 74.5084 280.336 60.946 274.852 59.3179C269.619 57.7642 262.436 59 257 59L220 59L97 59L55 59C51.0708 59 42.8503 57.4562 39.6034 60.0278z"/>
<path style="fill:#b8dec8; stroke:none;" d="M277 59L278 60L277 59z"/>
<path style="fill:#90cca7; stroke:none;" d="M37 61L37 85C39.3486 79.4031 39.3486 66.5969 37 61M278 61L278 85C280.349 79.4031 280.349 66.5969 278 61z"/>
<path style="fill:#75bf93; stroke:none;" d="M46 66C50.9741 68.0872 57.638 67 63 67C58.0259 64.9128 51.362 66 46 66M72 66C76.9741 68.0872 83.638 67 89 67C84.0259 64.9128 77.362 66 72 66M98 66C102.974 68.0872 109.638 67 115 67C110.026 64.9128 103.362 66 98 66M124 66C128.974 68.0872 135.638 67 141 67C136.026 64.9128 129.362 66 124 66M149 66C154.222 68.1914 161.368 67 167 67C161.778 64.8086 154.632 66 149 66M175 66C179.974 68.0872 186.638 67 192 67C187.026 64.9128 180.362 66 175 66M201 66C205.974 68.0872 212.638 67 218 67C213.026 64.9128 206.362 66 201 66M227 66C231.974 68.0872 238.638 67 244 67C239.026 64.9128 232.362 66 227 66M253 66C257.974 68.0872 264.638 67 270 67C265.026 64.9128 258.362 66 253 66z"/>
<path style="fill:#3da567; stroke:none;" d="M45 67L45 79C46.5124 75.3957 46.5124 70.6043 45 67z"/>
<path style="fill:#ffffff; stroke:none;" d="M46 67L46 79L63 79L63 67L46 67z"/>
<path style="fill:#79c196; stroke:none;" d="M63 67L63 79C64.5124 75.3957 64.5124 70.6043 63 67z"/>
<path style="fill:#43a86c; stroke:none;" d="M71 67L71 79C72.5124 75.3957 72.5124 70.6043 71 67z"/>
<path style="fill:#ffffff; stroke:none;" d="M72 67L72 79L89 79L89 67L72 67z"/>
<path style="fill:#46a96e; stroke:none;" d="M89 67L89 79C90.5124 75.3957 90.5124 70.6043 89 67z"/>
<path style="fill:#6bbb8b; stroke:none;" d="M97 67L97 79C98.5124 75.3957 98.5124 70.6043 97 67z"/>
<path style="fill:#ffffff; stroke:none;" d="M98 67L98 79L115 79L115 67L98 67z"/>
<path style="fill:#46aa6e; stroke:none;" d="M115 67L115 79C116.512 75.3957 116.512 70.6043 115 67z"/>
<path style="fill:#82c59d; stroke:none;" d="M123 67L123 79C124.512 75.3957 124.512 70.6043 123 67z"/>
<path style="fill:#ffffff; stroke:none;" d="M124 67L124 79L140 79L140 67L124 67z"/>
<path style="fill:#c4e4d0; stroke:none;" d="M140 67L140 79C141.512 75.3956 141.512 70.6043 140 67z"/>
<path style="fill:#c0e2cd; stroke:none;" d="M149 67L149 79C150.512 75.3956 150.512 70.6043 149 67z"/>
<path style="fill:#ffffff; stroke:none;" d="M150 67L150 79L166 79L166 67L150 67z"/>
<path style="fill:#c0e2cd; stroke:none;" d="M166 67L166 79C167.512 75.3956 167.512 70.6043 166 67z"/>
<path style="fill:#c4e4d0; stroke:none;" d="M175 67L175 79C176.512 75.3956 176.512 70.6043 175 67z"/>
<path style="fill:#ffffff; stroke:none;" d="M176 67L176 79L192 79L192 67L176 67z"/>
<path style="fill:#82c59d; stroke:none;" d="M192 67L192 79C193.512 75.3956 193.512 70.6043 192 67z"/>
<path style="fill:#46aa6e; stroke:none;" d="M200 67L200 79C201.512 75.3956 201.512 70.6043 200 67z"/>
<path style="fill:#ffffff; stroke:none;" d="M201 67L201 79L218 79L218 67L201 67z"/>
<path style="fill:#6cbb8c; stroke:none;" d="M218 67L218 79C219.512 75.3956 219.512 70.6043 218 67z"/>
<path style="fill:#46a96e; stroke:none;" d="M226 67L226 79C227.512 75.3956 227.512 70.6043 226 67z"/>
<path style="fill:#ffffff; stroke:none;" d="M227 67L227 79L244 79L244 67L227 67z"/>
<path style="fill:#43a86c; stroke:none;" d="M244 67L244 79C245.512 75.3956 245.512 70.6043 244 67z"/>
<path style="fill:#78c195; stroke:none;" d="M252 67L252 79C253.512 75.3956 253.512 70.6043 252 67z"/>
<path style="fill:#ffffff; stroke:none;" d="M253 67L253 79L270 79L270 67L253 67z"/>
<path style="fill:#3da667; stroke:none;" d="M270 67L270 79C271.512 75.3957 271.512 70.6043 270 67z"/>
<path style="fill:#8bc9a4; stroke:none;" d="M46 79C50.974 81.0872 57.638 80 63 80C58.0259 77.9128 51.362 79 46 79M72 79C76.9741 81.0872 83.638 80 89 80C84.0259 77.9128 77.362 79 72 79M98 79C102.974 81.0872 109.638 80 115 80C110.026 77.9128 103.362 79 98 79M124 79C128.974 81.0872 135.638 80 141 80C136.026 77.9128 129.362 79 124 79M149 79C154.222 81.1914 161.368 80 167 80C161.778 77.8086 154.632 79 149 79M175 79C179.974 81.0872 186.638 80 192 80C187.026 77.9128 180.362 79 175 79M201 79C205.974 81.0872 212.638 80 218 80C213.026 77.9128 206.362 79 201 79M227 79C231.974 81.0872 238.638 80 244 80C239.026 77.9128 232.362 79 227 79M253 79C257.974 81.0872 264.638 80 270 80C265.026 77.9128 258.362 79 253 79z"/>
<path style="fill:#a6d6b9; stroke:none;" d="M38 86L39 87L38 86z"/>
<path style="fill:#a6d6ba; stroke:none;" d="M277 86L278 87L277 86z"/>
<path style="fill:#bce0cb; stroke:none;" d="M39 87L40 88L39 87z"/>
<path style="fill:#40a769; stroke:none;" d="M40 87C46.194 89.5991 55.3141 88 62 88L110 88L276 88C269.806 85.4009 260.686 87 254 87L206 87L40 87z"/>
<path style="fill:#bee1cc; stroke:none;" d="M276 87L277 88L276 87z"/>
<path style="fill:#e3f2e9; stroke:none;" d="M41 88C47.194 90.5991 56.3141 89 63 89L110 89L275 89C268.806 86.4009 259.686 88 253 88L206 88L41 88z"/>
<path style="fill:#f6fbf8; stroke:none;" d="M41 99C47.194 101.599 56.3141 100 63 100L110 100L275 100C268.806 97.4009 259.686 99 253 99L206 99L41 99z"/>
<path style="fill:#46a96e; stroke:none;" d="M40 100C46.194 102.599 55.3141 101 62 101L110 101L276 101C269.806 98.4009 260.686 100 254 100L206 100L40 100z"/>
<path style="fill:#b9dfc8; stroke:none;" d="M38 101L39 102L38 101z"/>
<path style="fill:#badfc9; stroke:none;" d="M277 101L278 102L277 101z"/>
<path style="fill:#90cca7; stroke:none;" d="M37 103L37 170C39.1889 164.784 38 157.619 38 152L38 119C38 113.92 38.9806 107.72 37 103M278 103L278 170C280.189 164.784 279 157.619 279 152L279 119C279 113.92 279.981 107.72 278 103z"/>
<path style="fill:#66b887; stroke:none;" d="M46 108C50.9741 110.087 57.638 109 63 109C58.0259 106.913 51.362 108 46 108M72 108C76.9741 110.087 83.638 109 89 109C84.0259 106.913 77.362 108 72 108M98 108C102.974 110.087 109.638 109 115 109C110.026 106.913 103.362 108 98 108M124 108C128.974 110.087 135.638 109 141 109C136.026 106.913 129.362 108 124 108M149 108C154.222 110.191 161.368 109 167 109C161.778 106.809 154.632 108 149 108M175 108C179.974 110.087 186.638 109 192 109C187.026 106.913 180.362 108 175 108M201 108C205.974 110.087 212.638 109 218 109C213.026 106.913 206.362 108 201 108M227 108C231.974 110.087 238.638 109 244 109C239.026 106.913 232.362 108 227 108M253 108C257.974 110.087 264.638 109 270 109C265.026 106.913 258.362 108 253 108z"/>
<path style="fill:#3ca567; stroke:none;" d="M45 109L45 121C46.5124 117.396 46.5124 112.604 45 109z"/>
<path style="fill:#ffffff; stroke:none;" d="M46 109L46 121L63 121L63 109L46 109z"/>
<path style="fill:#79c196; stroke:none;" d="M63 109L63 121C64.5124 117.396 64.5124 112.604 63 109z"/>
<path style="fill:#43a86c; stroke:none;" d="M71 109L71 121C72.5124 117.396 72.5124 112.604 71 109z"/>
<path style="fill:#ffffff; stroke:none;" d="M72 109L72 121L89 121L89 109L72 109z"/>
<path style="fill:#46a96e; stroke:none;" d="M89 109L89 121C90.5124 117.396 90.5124 112.604 89 109z"/>
<path style="fill:#6cbb8c; stroke:none;" d="M97 109L97 121C98.5124 117.396 98.5124 112.604 97 109z"/>
<path style="fill:#ffffff; stroke:none;" d="M98 109L98 121L115 121L115 109L98 109z"/>
<path style="fill:#46aa6e; stroke:none;" d="M115 109L115 121C116.512 117.396 116.512 112.604 115 109z"/>
<path style="fill:#82c59d; stroke:none;" d="M123 109L123 121C124.512 117.396 124.512 112.604 123 109z"/>
<path style="fill:#ffffff; stroke:none;" d="M124 109L124 121L140 121L140 109L124 109z"/>
<path style="fill:#c4e4d0; stroke:none;" d="M140 109L140 121C141.512 117.396 141.512 112.604 140 109z"/>
<path style="fill:#c0e1cd; stroke:none;" d="M149 109L149 121C150.512 117.396 150.512 112.604 149 109z"/>
<path style="fill:#ffffff; stroke:none;" d="M150 109L150 121L166 121L166 109L150 109z"/>
<path style="fill:#c1e2ce; stroke:none;" d="M166 109L166 121C167.512 117.396 167.512 112.604 166 109z"/>
<path style="fill:#c3e4d0; stroke:none;" d="M175 109L175 121C176.512 117.396 176.512 112.604 175 109z"/>
<path style="fill:#ffffff; stroke:none;" d="M176 109L176 121L192 121L192 109L176 109z"/>
<path style="fill:#83c59d; stroke:none;" d="M192 109L192 121C193.512 117.396 193.512 112.604 192 109z"/>
<path style="fill:#46aa6e; stroke:none;" d="M200 109L200 121C201.512 117.396 201.512 112.604 200 109z"/>
<path style="fill:#ffffff; stroke:none;" d="M201 109L201 121L218 121L218 109L201 109z"/>
<path style="fill:#6cbb8c; stroke:none;" d="M218 109L218 121C219.512 117.396 219.512 112.604 218 109z"/>
<path style="fill:#46a96e; stroke:none;" d="M226 109L226 121C227.512 117.396 227.512 112.604 226 109z"/>
<path style="fill:#ffffff; stroke:none;" d="M227 109L227 121L244 121L244 109L227 109z"/>
<path style="fill:#43a86c; stroke:none;" d="M244 109L244 121C245.512 117.396 245.512 112.604 244 109z"/>
<path style="fill:#78c195; stroke:none;" d="M252 109L252 121C253.512 117.396 253.512 112.604 252 109z"/>
<path style="fill:#ffffff; stroke:none;" d="M253 109L253 121L270 121L270 109L253 109z"/>
<path style="fill:#3da667; stroke:none;" d="M270 109L270 121C271.512 117.396 271.512 112.604 270 109z"/>
<path style="fill:#8fcba7; stroke:none;" d="M46 121C50.9741 123.087 57.638 122 63 122C58.0259 119.913 51.362 121 46 121M72 121C76.9741 123.087 83.638 122 89 122C84.0259 119.913 77.362 121 72 121M98 121C102.974 123.087 109.638 122 115 122C110.026 119.913 103.362 121 98 121M124 121C128.974 123.087 135.638 122 141 122C136.026 119.913 129.362 121 124 121M149 121C154.222 123.191 161.368 122 167 122C161.778 119.809 154.632 121 149 121M175 121C179.974 123.087 186.638 122 192 122C187.026 119.913 180.362 121 175 121M201 121C205.974 123.087 212.638 122 218 122C213.026 119.913 206.362 121 201 121M227 121C231.974 123.087 238.638 122 244 122C239.026 119.913 232.362 121 227 121M253 121C257.974 123.087 264.638 122 270 122C265.026 119.913 258.362 121 253 121z"/>
<path style="fill:#42a86b; stroke:none;" d="M46 129C50.9741 131.087 57.638 130 63 130C58.0259 127.913 51.362 129 46 129z"/>
<path style="fill:#47aa6f; stroke:none;" d="M72 129C76.9741 131.087 83.638 130 89 130C84.0259 127.913 77.362 129 72 129z"/>
<path style="fill:#42a86b; stroke:none;" d="M98 129C102.974 131.087 109.638 130 115 130C110.026 127.913 103.362 129 98 129M124 129C128.974 131.087 135.638 130 141 130C136.026 127.913 129.362 129 124 129M149 129C154.222 131.191 161.368 130 167 130C161.778 127.809 154.632 129 149 129M175 129C179.974 131.087 186.638 130 192 130C187.026 127.913 180.362 129 175 129M201 129C205.974 131.087 212.638 130 218 130C213.026 127.913 206.362 129 201 129M227 129C231.974 131.087 238.638 130 244 130C239.026 127.913 232.362 129 227 129M253 129C257.974 131.087 264.638 130 270 130C265.026 127.913 258.362 129 253 129z"/>
<path style="fill:#3da567; stroke:none;" d="M45 130L45 143C46.5909 139.209 46.5909 133.791 45 130z"/>
<path style="fill:#e1f1e7; stroke:none;" d="M46 130L46 143L63 143C58.2762 141.018 52.0902 142 47 142L47 131L63 131C58.0259 128.913 51.362 130 46 130z"/>
<path style="fill:#79c196; stroke:none;" d="M63 130L63 143C64.5909 139.209 64.5909 133.791 63 130z"/>
<path style="fill:#43a86c; stroke:none;" d="M71 130L71 143C72.5909 139.209 72.5909 133.791 71 130z"/>
<path style="fill:#eaf5ef; stroke:none;" d="M72 130L72 143L85 143C81.3025 141.448 76.9832 142 73 142L73 131L89 131C84.0259 128.913 77.362 130 72 130z"/>
<path style="fill:#46a96e; stroke:none;" d="M89 130L89 140C90.3457 136.793 90.3457 133.207 89 130z"/>
<path style="fill:#6bbb8b; stroke:none;" d="M97 130L97 140C98.3457 136.793 98.3457 133.207 97 130z"/>
<path style="fill:#e9f5ee; stroke:none;" d="M98 130C102.724 131.982 108.91 131 114 131L114 142L103 142C106.697 143.552 111.017 143 115 143L115 130L98 130z"/>
<path style="fill:#46aa6e; stroke:none;" d="M115 130L115 143C116.591 139.209 116.591 133.791 115 130z"/>
<path style="fill:#82c59d; stroke:none;" d="M123 130L123 143C124.591 139.209 124.591 133.791 123 130z"/>
<path style="fill:#e9f5ee; stroke:none;" d="M124 130C128.724 131.982 134.91 131 140 131C135.276 129.018 129.09 130 124 130z"/>
<path style="fill:#c4e4d0; stroke:none;" d="M140 130L140 143C141.591 139.209 141.591 133.791 140 130z"/>
<path style="fill:#c0e1cd; stroke:none;" d="M149 130L149 143C150.591 139.209 150.591 133.791 149 130z"/>
<path style="fill:#e9f5ee; stroke:none;" d="M150 130C154.724 131.982 160.91 131 166 131C161.276 129.018 155.09 130 150 130z"/>
<path style="fill:#c1e2ce; stroke:none;" d="M166 130L166 143C167.591 139.209 167.591 133.791 166 130z"/>
<path style="fill:#c4e4d0; stroke:none;" d="M175 130L175 143C176.591 139.209 176.591 133.791 175 130z"/>
<path style="fill:#e9f5ee; stroke:none;" d="M176 130C180.724 131.982 186.91 131 192 131C187.276 129.018 181.09 130 176 130z"/>
<path style="fill:#82c59d; stroke:none;" d="M192 130L192 143C193.591 139.209 193.591 133.791 192 130z"/>
<path style="fill:#45a96e; stroke:none;" d="M200 130L200 143C201.591 139.209 201.591 133.791 200 130z"/>
<path style="fill:#e9f5ee; stroke:none;" d="M201 130L201 143L214 143C210.303 141.448 205.983 142 202 142L202 131L218 131C213.026 128.913 206.362 130 201 130z"/>
<path style="fill:#6dbc8c; stroke:none;" d="M218 130L218 140C219.346 136.793 219.346 133.207 218 130z"/>
<path style="fill:#46a96e; stroke:none;" d="M226 130L226 140C227.346 136.793 227.346 133.207 226 130z"/>
<path style="fill:#e9f5ee; stroke:none;" d="M227 130C231.724 131.982 237.91 131 243 131L243 142L231 142C234.959 143.661 239.737 143 244 143L244 130L227 130z"/>
<path style="fill:#43a86c; stroke:none;" d="M244 130L244 143C245.591 139.209 245.591 133.791 244 130z"/>
<path style="fill:#78c195; stroke:none;" d="M252 130L252 143C253.591 139.209 253.591 133.791 252 130z"/>
<path style="fill:#e1f1e7; stroke:none;" d="M253 130C257.724 131.982 263.91 131 269 131L269 142L253 142C257.974 144.087 264.638 143 270 143L270 130L253 130z"/>
<path style="fill:#3da667; stroke:none;" d="M270 130L270 143C271.591 139.209 271.591 133.791 270 130z"/>
<path style="fill:#ffffff; stroke:none;" d="M47 131L47 142L63 142L63 131L47 131M73 131L73 142C77.1175 142 85.2595 143.505 87.9722 139.566C89.5488 137.277 88.998 133.627 89 131L73 131M98 131C98.0018 133.348 97.5553 136.423 98.6034 138.606C100.938 143.466 109.65 142 114 142L114 131L98 131M124 131L124 142L140 142L140 131L124 131M150 131L150 142L166 142L166 131L150 131M176 131L176 142L192 142L192 131L176 131M202 131L202 142C206.388 142 215.099 143.593 217.397 138.656C218.43 136.436 217.998 133.38 218 131L202 131M227 131C227.002 133.38 226.57 136.436 227.603 138.656C229.901 143.593 238.612 142 243 142L243 131L227 131M253 131L253 142L269 142L269 131L253 131z"/>
<path style="fill:#85c69f; stroke:none;" d="M88 140L89 141L88 140z"/>
<path style="fill:#68b988; stroke:none;" d="M99 140L100 141L99 140z"/>
<path style="fill:#bce0ca; stroke:none;" d="M216 140L217 141L216 140z"/>
<path style="fill:#abd8bd; stroke:none;" d="M228 140L229 141L228 140z"/>
<path style="fill:#a9d8bc; stroke:none;" d="M86 141L87 142L86 141z"/>
<path style="fill:#8ecaa7; stroke:none;" d="M101 141L102 142L101 141z"/>
<path style="fill:#6fbc8e; stroke:none;" d="M215 141L216 142L215 141z"/>
<path style="fill:#65b886; stroke:none;" d="M229 141L230 142L229 141z"/>
<path style="fill:#87c7a1; stroke:none;" d="M85 142L86 143L85 142z"/>
<path style="fill:#e1f1e7; stroke:none;" d="M124 142C128.724 143.982 134.91 143 140 143C135.276 141.018 129.09 142 124 142M150 142C154.724 143.982 160.91 143 166 143C161.276 141.018 155.09 142 150 142M176 142C180.724 143.982 186.91 143 192 143C187.276 141.018 181.09 142 176 142z"/>
<path style="fill:#46a96e; stroke:none;" d="M92 147C93.506 147.683 94.3148 147.826 96 148C94.4939 147.317 93.6852 147.174 92 147z"/>
<path style="fill:#89c9a3; stroke:none;" d="M91 148L92 149L91 148z"/>
<path style="fill:#ffffff; stroke:none;" d="M101 256C104.944 237.143 120.557 222.597 129.557 206C131.529 202.364 135.094 188.649 126.985 189.466C120.46 190.123 114.231 202.369 110.385 206.999C108.512 209.254 105.546 213.608 102.059 212.654C97.3322 211.361 98.0017 204.674 98 201L98 163C98 159.499 99.7047 148.636 94 148.636C88.663 148.636 90 157.691 90 161L90 192C89.9941 195.512 90.5377 200.956 86.7863 202.914C78.7336 207.116 82.2059 190.296 76.0502 190.296C70.5559 190.296 72.9767 198.756 68.7755 200.914C62.9522 203.905 62.7619 193.228 57.1289 194.377C51.9364 195.435 55.3497 204.072 49.9066 205.654C44.6764 207.175 43.2537 195.067 37.6026 199.198C34.6362 201.367 36 208.816 36 212C36 223.3 36.1798 234 39.159 245C40.0123 248.151 41.1877 253.821 44.4182 255.397C48.6651 257.468 56.3531 256 61 256L101 256z"/>
<path style="fill:#a8d7bb; stroke:none;" d="M96 148L97 149L96 148z"/>
<path style="fill:#ffffff; stroke:none;" d="M216 256L256 256C260.505 256 268.677 257.555 272.582 254.972C275.945 252.747 277.142 246.657 277.988 243C280.36 232.761 281 222.487 281 212C281 208.414 282.307 201.31 278.687 199.047C272.69 195.3 272.646 207.239 267.043 205.654C261.448 204.072 265.117 195.419 259.857 194.377C254.231 193.262 253.385 203.009 248.144 200.824C243.592 198.926 246.52 191.074 240.961 190.466C235.301 189.847 236.714 196.72 235.397 199.941C234.387 202.408 231.775 204.14 229.317 202.338C226.106 199.984 227 194.432 227 191L227 161C227 157.336 228.34 149.065 222.985 148.466C216.398 147.729 218 159.204 218 163L218 201C218 204.505 219.041 212.403 213.956 213.079C210.918 213.482 208.643 210.01 207.004 207.995C203.541 203.738 200.281 199.311 196.88 195.005C195.116 192.771 193.112 189.783 190.005 189.466C182.12 188.661 185.286 202.301 187.135 206C195.818 223.374 210.889 236.889 216 256z"/>
<path style="fill:#94ceab; stroke:none;" d="M90 149L91 150L90 149z"/>
<path style="fill:#bce0ca; stroke:none;" d="M97 149L98 150L97 149z"/>
<path style="fill:#88c8a2; stroke:none;" d="M98 150L99 151L98 150z"/>
<path style="fill:#bbdfc9; stroke:none;" d="M218 150L219 151L218 150z"/>
<path style="fill:#3da567; stroke:none;" d="M45 151L45 164C46.5909 160.209 46.5909 154.791 45 151z"/>
<path style="fill:#b5ddc5; stroke:none;" d="M46 151C50.9741 153.087 57.638 152 63 152C58.0259 149.913 51.362 151 46 151z"/>
<path style="fill:#79c196; stroke:none;" d="M63 151L63 164C64.5909 160.209 64.5909 154.791 63 151z"/>
<path style="fill:#43a86c; stroke:none;" d="M71 151L71 164C72.5909 160.209 72.5909 154.791 71 151z"/>
<path style="fill:#b5ddc5; stroke:none;" d="M72 151C74.8897 152.213 77.8741 151.998 81 152C78.1103 150.787 75.1259 151.002 72 151z"/>
<path style="fill:#bfe1cd; stroke:none;" d="M89 151L89 201C90.6611 197.041 90 192.26 90 188L90 165C90 160.464 90.7688 155.215 89 151z"/>
<path style="fill:#d5ecdf; stroke:none;" d="M98 151L98 211C99.9806 206.28 99 200.08 99 195L99 166C99 161.191 99.8752 155.469 98 151z"/>
<path style="fill:#3ba466; stroke:none;" d="M99 151L99 211C100.981 206.28 100 200.08 100 195L100 166C100 161.191 100.875 155.469 99 151z"/>
<path style="fill:#b5ddc5; stroke:none;" d="M107 151L107 164C108.552 160.303 108 155.983 108 152L192 152C184.841 148.996 173.744 151 166 151L107 151z"/>
<path style="fill:#83c59d; stroke:none;" d="M192 151L192 164C193.591 160.209 193.591 154.791 192 151z"/>
<path style="fill:#45a96e; stroke:none;" d="M200 151L200 164C201.591 160.209 201.591 154.791 200 151z"/>
<path style="fill:#b5ddc5; stroke:none;" d="M201 151C203.613 152.098 206.165 151.993 209 152C206.387 150.902 203.835 151.007 201 151z"/>
<path style="fill:#49ab70; stroke:none;" d="M209 151L209 164C210.591 160.209 210.591 154.791 209 151z"/>
<path style="fill:#6aba8b; stroke:none;" d="M227 151L227 201C228.769 196.785 228 191.536 228 187L228 164C228 159.74 228.661 154.959 227 151z"/>
<path style="fill:#5bb37f; stroke:none;" d="M235 151L235 164C236.591 160.209 236.591 154.791 235 151z"/>
<path style="fill:#b5ddc5; stroke:none;" d="M236 151C238.613 152.098 241.165 151.993 244 152C241.387 150.902 238.835 151.007 236 151z"/>
<path style="fill:#43a86c; stroke:none;" d="M244 151L244 164C245.591 160.209 245.591 154.791 244 151z"/>
<path style="fill:#79c196; stroke:none;" d="M252 151L252 164C253.591 160.209 253.591 154.791 252 151z"/>
<path style="fill:#b5ddc5; stroke:none;" d="M253 151C257.974 153.087 264.638 152 270 152C265.026 149.913 258.362 151 253 151z"/>
<path style="fill:#3da567; stroke:none;" d="M270 151L270 164C271.591 160.209 271.591 154.791 270 151z"/>
<path style="fill:#ffffff; stroke:none;" d="M46 152L46 164L63 164L63 152L46 152z"/>
<path style="fill:#eef7f1; stroke:none;" d="M72 152L72 164C73.5124 160.396 73.5124 155.604 72 152z"/>
<path style="fill:#ffffff; stroke:none;" d="M73 152L73 164L80 164L80 152L73 152z"/>
<path style="fill:#c6e4d2; stroke:none;" d="M80 152L80 164C81.5124 160.396 81.5124 155.604 80 152z"/>
<path style="fill:#ffffff; stroke:none;" d="M108 152L108 164L192 164L192 152L108 152M201 152L201 164L209 164L209 152L201 152z"/>
<path style="fill:#59b27d; stroke:none;" d="M217 152L217 211C218.769 206.785 218 201.535 218 197L218 168C218 162.92 218.981 156.72 217 152z"/>
<path style="fill:#ffffff; stroke:none;" d="M236 152L236 164L243 164L243 152L236 152z"/>
<path style="fill:#eef7f2; stroke:none;" d="M243 152L243 164C244.512 160.396 244.512 155.604 243 152z"/>
<path style="fill:#ffffff; stroke:none;" d="M253 152L253 164L270 164L270 152L253 152z"/>
<path style="fill:#38a363; stroke:none;" d="M46 164C50.9741 166.087 57.638 165 63 165C58.0259 162.913 51.362 164 46 164M107 164C114.159 167.004 125.256 165 133 165L192 165C184.841 161.996 173.744 164 166 164L107 164M253 164C257.974 166.087 264.638 165 270 165C265.026 162.913 258.362 164 253 164z"/>
<path style="fill:#76bf93; stroke:none;" d="M40 172C44.2151 173.769 49.4645 173 54 173L81 173C76.7849 171.231 71.5355 172 67 172L40 172M107 172C115.357 175.507 128.94 173 138 173L209 173C200.643 169.493 187.06 172 178 172L107 172M236 172C239.959 173.661 244.74 173 249 173L275 173C271.041 171.339 266.26 172 262 172L236 172z"/>
<path style="fill:#b0dac1; stroke:none;" d="M275 172L276 173L275 172z"/>
<path style="fill:#c6e4d2; stroke:none;" d="M80 173L80 180C81.0595 177.466 81.0595 175.534 80 173z"/>
<path style="fill:#a7d6ba; stroke:none;" d="M107 173L107 180C108.059 177.466 108.059 175.534 107 173z"/>
<path style="fill:#ffffff; stroke:none;" d="M108 173L108 179L209 179L209 173L108 173z"/>
<path style="fill:#49ab70; stroke:none;" d="M209 173L209 180C210.059 177.466 210.059 175.534 209 173z"/>
<path style="fill:#5bb37f; stroke:none;" d="M235 173L235 180C236.059 177.466 236.059 175.534 235 173z"/>
<path style="fill:#ecf6f0; stroke:none;" d="M31 179C35.7199 180.981 41.9198 180 47 180L80 180C75.2801 178.019 69.0802 179 64 179L31 179M108 179C112.974 181.087 119.638 180 125 180C120.026 177.913 113.362 179 108 179z"/>
<path style="fill:#abd8be; stroke:none;" d="M125 179C126.769 179.779 128.036 179.912 130 180C128.231 179.221 126.964 179.088 125 179z"/>
<path style="fill:#ecf6f0; stroke:none;" d="M130 179C135.216 181.189 142.381 180 148 180L186 180C180.784 177.811 173.619 179 168 179L130 179z"/>
<path style="fill:#aad8bd; stroke:none;" d="M186 179C187.769 179.779 189.036 179.912 191 180C189.231 179.221 187.964 179.088 186 179z"/>
<path style="fill:#ecf6f0; stroke:none;" d="M191 179C196.222 181.191 203.368 180 209 180C203.778 177.809 196.632 179 191 179M236 179C240.72 180.981 246.92 180 252 180L285 180C280.28 178.019 274.08 179 269 179L236 179z"/>
<path style="fill:#43a86c; stroke:none;" d="M30 180C34.969 182.085 41.6497 181 47 181L81 181C76.0309 178.915 69.3503 180 64 180L30 180M107 180C112.222 182.191 119.368 181 125 181C119.778 178.809 112.632 180 107 180M130 180C135.216 182.189 142.381 181 148 181L186 181C180.784 178.811 173.619 180 168 180L130 180M191 180C196.222 182.191 203.368 181 209 181C203.778 178.809 196.632 180 191 180M236 180C240.72 181.981 246.92 181 252 181L286 181C281.28 179.019 275.08 180 270 180L236 180z"/>
<path style="fill:#87c8a2; stroke:none;" d="M22 183L23 184L22 183z"/>
<path style="fill:#88c8a2; stroke:none;" d="M293 183L294 184L293 183z"/>
<path style="fill:#bee1cc; stroke:none;" d="M24 186L25 187L24 186z"/>
<path style="fill:#bfe1cd; stroke:none;" d="M291 186L292 187L291 186z"/>
<path style="fill:#7cc298; stroke:none;" d="M26 187L27 188L26 187z"/>
<path style="fill:#72be90; stroke:none;" d="M289 187L290 188L289 187z"/>
<path style="fill:#75bf93; stroke:none;" d="M28 188C34.077 190.556 41.5495 188.844 48 190C44.387 185.865 33.2494 188 28 188z"/>
<path style="fill:#79c196; stroke:none;" d="M107 188C109.233 189.009 111.604 189.405 114 190C112.074 187.792 109.875 188.032 107 188z"/>
<path style="fill:#d3eadc; stroke:none;" d="M126 188C127.248 188.685 127.548 188.749 129 189C127.752 188.315 127.452 188.251 126 188z"/>
<path style="fill:#7fc49b; stroke:none;" d="M129 188L130 189L129 188z"/>
<path style="fill:#79c196; stroke:none;" d="M140 188C143.959 189.661 148.74 189 153 189L177 189C173.041 187.339 168.26 188 164 188L140 188z"/>
<path style="fill:#d2eadc; stroke:none;" d="M187 188C188.248 188.685 188.548 188.749 190 189C188.752 188.315 188.452 188.251 187 188z"/>
<path style="fill:#99d0af; stroke:none;" d="M190 188L191 189L190 188z"/>
<path style="fill:#79c196; stroke:none;" d="M203 188C205.052 188.874 206.747 188.953 209 189C206.948 188.126 205.253 188.047 203 188z"/>
<path style="fill:#75bf93; stroke:none;" d="M269 188C274.461 190.561 281.136 189.105 287 189C281.778 186.809 274.632 188 269 188z"/>
<path style="fill:#def0e5; stroke:none;" d="M287.667 188.333C287.222 188.778 288.278 188.722 288.333 188.667C288.778 188.222 287.722 188.278 287.667 188.333z"/>
<path style="fill:#a3d4b7; stroke:none;" d="M35.6667 189.333C35.2222 189.778 36.2778 189.722 36.3333 189.667C36.7777 189.222 35.7222 189.278 35.6667 189.333z"/>
<path style="fill:#42a86b; stroke:none;" d="M38 189C39.506 189.683 40.3148 189.826 42 190C40.494 189.317 39.6852 189.174 38 189z"/>
<path style="fill:#d6ecdf; stroke:none;" d="M43.6667 189.333C43.2222 189.778 44.2778 189.722 44.3333 189.667C44.7777 189.222 43.7222 189.278 43.6667 189.333z"/>
<path style="fill:#f6fbf8; stroke:none;" d="M45 189C45.5451 190.635 45.3648 190.455 47 191L47 189L45 189z"/>
<path style="fill:#71bd90; stroke:none;" d="M74 189C75.5061 189.683 76.3148 189.826 78 190C76.4939 189.317 75.6852 189.174 74 189z"/>
<path style="fill:#a6d6b9; stroke:none;" d="M107 189L107 197C108.572 194.281 108.273 191.862 107 189z"/>
<path style="fill:#fdfefd; stroke:none;" d="M108 189L108 195C110.348 193.17 111.617 191.637 113 189L108 189z"/>
<path style="fill:#7fc39a; stroke:none;" d="M124 189L125 190L124 189z"/>
<path style="fill:#90cca8; stroke:none;" d="M130 189L131 190L130 189z"/>
<path style="fill:#bfe1cd; stroke:none;" d="M176 189L177 190L176 189z"/>
<path style="fill:#c4e4d0; stroke:none;" d="M186 189L187 190L186 189z"/>
<path style="fill:#b5ddc5; stroke:none;" d="M203 189L204 190L203 189z"/>
<path style="fill:#fefefe; stroke:none;" d="M204 189C205.106 191.513 206.523 193.677 208 196C208.985 193.668 208.981 191.543 209 189L204 189z"/>
<path style="fill:#49ab70; stroke:none;" d="M209 189C208.942 191.784 208.648 194.291 208 197C210.476 194.837 210.223 191.92 209 189z"/>
<path style="fill:#77c095; stroke:none;" d="M239 189C240.248 189.685 240.548 189.749 242 190C240.752 189.315 240.452 189.251 239 189z"/>
<path style="fill:#fafdfb; stroke:none;" d="M269 189C270.248 189.685 270.548 189.749 272 190C270.752 189.315 270.452 189.251 269 189z"/>
<path style="fill:#9bd1b1; stroke:none;" d="M272.667 189.333C272.222 189.778 273.278 189.722 273.333 189.667C273.778 189.222 272.722 189.278 272.667 189.333z"/>
<path style="fill:#42a86c; stroke:none;" d="M275 189C276.506 189.683 277.315 189.826 279 190C277.494 189.317 276.685 189.174 275 189z"/>
<path style="fill:#dbeee2; stroke:none;" d="M280.667 189.333C280.222 189.778 281.278 189.722 281.333 189.667C281.778 189.222 280.722 189.278 280.667 189.333z"/>
<path style="fill:#68b989; stroke:none;" d="M45 190L46 191L45 190z"/>
<path style="fill:#a3d4b7; stroke:none;" d="M112 190L113 191L112 190z"/>
<path style="fill:#82c59d; stroke:none;" d="M123 190L124 191L123 190z"/>
<path style="fill:#82c69e; stroke:none;" d="M140.333 190.667C140.278 190.722 140.222 191.778 140.667 191.333C140.722 191.278 140.778 190.222 140.333 190.667z"/>
<path style="fill:#96ceac; stroke:none;" d="M185 190L186 191L185 190z"/>
<path style="fill:#69ba8a; stroke:none;" d="M237 190L238 191L237 190z"/>
<path style="fill:#92cca9; stroke:none;" d="M243 190L244 191L243 190z"/>
<path style="fill:#add9bf; stroke:none;" d="M270 190L271 191L270 190z"/>
<path style="fill:#74bf92; stroke:none;" d="M282 190L283 191L282 190z"/>
<path style="fill:#80c49b; stroke:none;" d="M32 191L33 192L32 191z"/>
<path style="fill:#badfc9; stroke:none;" d="M72 191L73 192L72 191z"/>
<path style="fill:#74bf93; stroke:none;" d="M122 191L123 192L122 191z"/>
<path style="fill:#81c49c; stroke:none;" d="M244 191L245 192L244 191z"/>
<path style="fill:#a0d3b5; stroke:none;" d="M284 191L285 192L284 191z"/>
<path style="fill:#c5e4d1; stroke:none;" d="M80 192L80 201C81.2561 198.006 81.2561 194.994 80 192z"/>
<path style="fill:#6aba8b; stroke:none;" d="M132.333 192.667C132.278 192.722 132.222 193.778 132.667 193.333C132.722 193.278 132.778 192.222 132.333 192.667z"/>
<path style="fill:#eef7f2; stroke:none;" d="M141 192L141 200C142.161 197.23 142.161 194.77 141 192z"/>
<path style="fill:#9fd3b4; stroke:none;" d="M175 192L175 199C176.059 196.466 176.059 194.534 175 192z"/>
<path style="fill:#7bc298; stroke:none;" d="M184 192L185 193L184 192z"/>
<path style="fill:#7fc49b; stroke:none;" d="M205 192L206 193L205 192z"/>
<path style="fill:#80c49c; stroke:none;" d="M285 192L286 193L285 192z"/>
<path style="fill:#63b785; stroke:none;" d="M55 193L56 194L55 193z"/>
<path style="fill:#d7ecdf; stroke:none;" d="M56 193C57.506 193.683 58.3148 193.826 60 194C58.494 193.317 57.6852 193.174 56 193z"/>
<path style="fill:#bee1cd; stroke:none;" d="M71 193L71 199C71.9511 196.715 71.9511 195.285 71 193z"/>
<path style="fill:#72be90; stroke:none;" d="M110 193L111 194L110 193z"/>
<path style="fill:#e6f3eb; stroke:none;" d="M184 193L184 199C184.951 196.715 184.951 195.285 184 193z"/>
<path style="fill:#9dd2b2; stroke:none;" d="M195 193L196 194L195 193z"/>
<path style="fill:#9ad0b0; stroke:none;" d="M206 193L207 194L206 193z"/>
<path style="fill:#5bb37f; stroke:none;" d="M235 193L235 201C236.161 198.23 236.161 195.77 235 193z"/>
<path style="fill:#83c59e; stroke:none;" d="M245 193L245 199C245.951 196.715 245.951 195.285 245 193z"/>
<path style="fill:#83c69e; stroke:none;" d="M256 193L257 194L256 193z"/>
<path style="fill:#d9ede1; stroke:none;" d="M257 193C258.506 193.683 259.315 193.826 261 194C259.494 193.317 258.685 193.174 257 193z"/>
<path style="fill:#74bf92; stroke:none;" d="M286 193L287 194L286 193z"/>
<path style="fill:#81c49c; stroke:none;" d="M54 194L55 195L54 194z"/>
<path style="fill:#7dc399; stroke:none;" d="M61 194L62 195L61 194z"/>
<path style="fill:#91cca9; stroke:none;" d="M109 194L110 195L109 194z"/>
<path style="fill:#aad8bd; stroke:none;" d="M120 194L121 195L120 194z"/>
<path style="fill:#99d0af; stroke:none;" d="M132 194L132 198C132.71 196.241 132.71 195.759 132 194z"/>
<path style="fill:#76c093; stroke:none;" d="M196 194L197 195L196 194z"/>
<path style="fill:#c3e4d0; stroke:none;" d="M207 194L208 195L207 194z"/>
<path style="fill:#acd9bf; stroke:none;" d="M255 194L256 195L255 194z"/>
<path style="fill:#9dd2b2; stroke:none;" d="M287 194L288 195L287 194z"/>
<path style="fill:#a4d5b8; stroke:none;" d="M28 195L29 196L28 195z"/>
<path style="fill:#8ecaa7; stroke:none;" d="M119 195L120 196L119 195z"/>
<path style="fill:#8dcaa5; stroke:none;" d="M254 195L255 196L254 195z"/>
<path style="fill:#c5e4d2; stroke:none;" d="M53 196L53 203C54.0595 200.466 54.0595 198.534 53 196z"/>
<path style="fill:#bbe0ca; stroke:none;" d="M62 196L62 199C62.6961 197.446 62.6961 197.554 62 196z"/>
<path style="fill:#67b888; stroke:none;" d="M118 196L119 197L118 196z"/>
<path style="fill:#92cca9; stroke:none;" d="M263 196L263 204C264.161 201.23 264.161 198.77 263 196z"/>
<path style="fill:#98d0af; stroke:none;" d="M27 197L28 198L27 197z"/>
<path style="fill:#58b27d; stroke:none;" d="M38 197C39.2484 197.685 39.5484 197.749 41 198C39.7517 197.315 39.4516 197.251 38 197z"/>
<path style="fill:#b8dec8; stroke:none;" d="M198 197L199 198L198 197z"/>
<path style="fill:#58b27c; stroke:none;" d="M253 197L253 200C253.696 198.446 253.696 198.554 253 197z"/>
<path style="fill:#5ab37e; stroke:none;" d="M275 197C276.248 197.685 276.548 197.749 278 198C276.752 197.315 276.452 197.251 275 197z"/>
<path style="fill:#b3dcc3; stroke:none;" d="M37 198L38 199L37 198z"/>
<path style="fill:#a4d5b7; stroke:none;" d="M42 198L43 199L42 198z"/>
<path style="fill:#c3e3d0; stroke:none;" d="M117 198L118 199L117 198z"/>
<path style="fill:#61b683; stroke:none;" d="M132.333 198.667C132.278 198.722 132.222 199.778 132.667 199.333C132.722 199.278 132.778 198.222 132.333 198.667z"/>
<path style="fill:#8dcaa6; stroke:none;" d="M199 198L200 199L199 198z"/>
<path style="fill:#92cca9; stroke:none;" d="M279 198L280 199L279 198z"/>
<path style="fill:#a0d3b5; stroke:none;" d="M289 198L290 199L289 198z"/>
<path style="fill:#b1dbc2; stroke:none;" d="M43 199L44 200L43 199z"/>
<path style="fill:#99d0af; stroke:none;" d="M116 199L117 200L116 199z"/>
<path style="fill:#70bd8f; stroke:none;" d="M140 199L140 202C140.696 200.446 140.696 200.554 140 199z"/>
<path style="fill:#d9eee2; stroke:none;" d="M175.333 199.667C175.278 199.722 175.222 200.778 175.667 200.333C175.722 200.278 175.778 199.222 175.333 199.667z"/>
<path style="fill:#a8d7bb; stroke:none;" d="M184 199L185 200L184 199z"/>
<path style="fill:#6fbc8e; stroke:none;" d="M200 199L201 200L200 199z"/>
<path style="fill:#bfe2cd; stroke:none;" d="M245 199L246 200L245 199z"/>
<path style="fill:#93cdab; stroke:none;" d="M280 199L281 200L280 199z"/>
<path style="fill:#c6e5d3; stroke:none;" d="M35 200L35 224C37.3486 218.403 37.3486 205.597 35 200z"/>
<path style="fill:#c5e4d1; stroke:none;" d="M63 200L64 201L63 200z"/>
<path style="fill:#b6ddc6; stroke:none;" d="M70 200L71 201L70 200z"/>
<path style="fill:#7ec39a; stroke:none;" d="M115 200L116 201L115 200z"/>
<path style="fill:#87c7a1; stroke:none;" d="M246 200L247 201L246 200z"/>
<path style="fill:#d2eadc; stroke:none;" d="M272 200L272 203C272.696 201.446 272.696 201.554 272 200z"/>
<path style="fill:#d3ebdd; stroke:none;" d="M290 200L290 221C292.153 215.869 292.153 205.131 290 200z"/>
<path style="fill:#bbe0ca; stroke:none;" d="M26 201L26 221C28.0866 216.027 28.0866 205.973 26 201z"/>
<path style="fill:#bee1cd; stroke:none;" d="M44.3333 201.667C44.2778 201.722 44.2222 202.778 44.6667 202.333C44.7222 202.278 44.7778 201.222 44.3333 201.667z"/>
<path style="fill:#c1e3cf; stroke:none;" d="M64 201L65 202L64 201z"/>
<path style="fill:#4aab72; stroke:none;" d="M65 201C66.506 201.683 67.3148 201.826 69 202C67.494 201.317 66.6852 201.174 65 201z"/>
<path style="fill:#bfe1cd; stroke:none;" d="M69 201L70 202L69 201z"/>
<path style="fill:#b3dbc3; stroke:none;" d="M227 201L228 202L227 201z"/>
<path style="fill:#93cdab; stroke:none;" d="M235 201L236 202L235 201z"/>
<path style="fill:#a1d3b5; stroke:none;" d="M247 201L248 202L247 201z"/>
<path style="fill:#86c7a0; stroke:none;" d="M251 201L252 202L251 201z"/>
<path style="fill:#a5d5b8; stroke:none;" d="M281 201L281 220C283.02 215.187 283.02 205.813 281 201z"/>
<path style="fill:#98cfaf; stroke:none;" d="M88 202L89 203L88 202z"/>
<path style="fill:#78c195; stroke:none;" d="M131 202L132 203L131 202z"/>
<path style="fill:#dbeee3; stroke:none;" d="M140.333 202.667C140.278 202.722 140.222 203.778 140.667 203.333C140.722 203.278 140.778 202.222 140.333 202.667z"/>
<path style="fill:#80c49b; stroke:none;" d="M176 202L177 203L176 202z"/>
<path style="fill:#add9bf; stroke:none;" d="M185 202L186 203L185 202z"/>
<path style="fill:#9fd3b5; stroke:none;" d="M202 202L203 203L202 202z"/>
<path style="fill:#68b989; stroke:none;" d="M228 202L229 203L228 202z"/>
<path style="fill:#c3e3d0; stroke:none;" d="M82 203L83 204L82 203z"/>
<path style="fill:#afdac0; stroke:none;" d="M87 203L88 204L87 203z"/>
<path style="fill:#b7dec7; stroke:none;" d="M113 203L114 204L113 203z"/>
<path style="fill:#6fbc8e; stroke:none;" d="M185 203L186 204L185 203z"/>
<path style="fill:#85c7a0; stroke:none;" d="M203 203L204 204L203 203z"/>
<path style="fill:#8dcaa5; stroke:none;" d="M229 203L230 204L229 203z"/>
<path style="fill:#78c196; stroke:none;" d="M233 203L234 204L233 203z"/>
<path style="fill:#72be90; stroke:none;" d="M45 204L46 205L45 204z"/>
<path style="fill:#7cc298; stroke:none;" d="M52 204L53 205L52 204z"/>
<path style="fill:#94cdab; stroke:none;" d="M112 204L113 205L112 204z"/>
<path style="fill:#92cda9; stroke:none;" d="M130 204L131 205L130 204z"/>
<path style="fill:#9cd1b1; stroke:none;" d="M271 204L272 205L271 204z"/>
<path style="fill:#6fbd8f; stroke:none;" d="M177 205L178 206L177 205z"/>
<path style="fill:#82c59d; stroke:none;" d="M270 205L271 206L270 205M47 206C48.5061 206.683 49.3148 206.826 51 207C49.494 206.317 48.6852 206.174 47 206z"/>
<path style="fill:#76c094; stroke:none;" d="M129 206L130 207L129 206z"/>
<path style="fill:#bde0cb; stroke:none;" d="M177 206L178 207L177 206z"/>
<path style="fill:#b8dec7; stroke:none;" d="M187 206L188 207L187 206z"/>
<path style="fill:#b9dec8; stroke:none;" d="M205 206L206 207L205 206z"/>
<path style="fill:#7fc49b; stroke:none;" d="M266 206C267.248 206.685 267.548 206.749 269 207C267.752 206.315 267.452 206.251 266 206z"/>
<path style="fill:#b9dfc8; stroke:none;" d="M269 206L270 207L269 206z"/>
<path style="fill:#c9e6d4; stroke:none;" d="M128 207L129 208L128 207z"/>
<path style="fill:#86c7a1; stroke:none;" d="M138 207L139 208L138 207z"/>
<path style="fill:#9ed2b3; stroke:none;" d="M206 207L207 208L206 207z"/>
<path style="fill:#b1dbc2; stroke:none;" d="M109 208L110 209L109 208z"/>
<path style="fill:#b8dec7; stroke:none;" d="M178 208L179 209L178 208z"/>
<path style="fill:#8dcaa6; stroke:none;" d="M188 208L189 209L188 208z"/>
<path style="fill:#72be91; stroke:none;" d="M207 208L208 209L207 208z"/>
<path style="fill:#81c59d; stroke:none;" d="M108 209L109 210L108 209z"/>
<path style="fill:#a2d4b6; stroke:none;" d="M127 209L128 210L127 209z"/>
<path style="fill:#96cead; stroke:none;" d="M137 209L138 210L137 209z"/>
<path style="fill:#68ba89; stroke:none;" d="M189 210L190 211L189 210z"/>
<path style="fill:#7ac297; stroke:none;" d="M99 211L100 212L99 211z"/>
<path style="fill:#84c69f; stroke:none;" d="M126 211L127 212L126 211z"/>
<path style="fill:#abd8bd; stroke:none;" d="M136 211L137 212L136 211z"/>
<path style="fill:#7ac197; stroke:none;" d="M180 211L181 212L180 211z"/>
<path style="fill:#b4dcc4; stroke:none;" d="M190 211L191 212L190 211z"/>
<path style="fill:#aedac0; stroke:none;" d="M209 211L210 212L209 211z"/>
<path style="fill:#c1e2cf; stroke:none;" d="M217 211L218 212L217 211z"/>
<path style="fill:#c3e3d0; stroke:none;" d="M125 212L126 213L125 212z"/>
<path style="fill:#6aba8a; stroke:none;" d="M135 212L136 213L135 212z"/>
<path style="fill:#95cead; stroke:none;" d="M210 212L211 213L210 212z"/>
<path style="fill:#83c59e; stroke:none;" d="M216 212L217 213L216 212z"/>
<path style="fill:#aedac0; stroke:none;" d="M101 213L102 214L101 213z"/>
<path style="fill:#69ba8a; stroke:none;" d="M102 213C103.248 213.685 103.548 213.749 105 214C103.752 213.315 103.452 213.251 102 213z"/>
<path style="fill:#67b988; stroke:none;" d="M125 213L126 214L125 213z"/>
<path style="fill:#a1d4b5; stroke:none;" d="M181 213L182 214L181 213z"/>
<path style="fill:#8ecba6; stroke:none;" d="M191 213L192 214L191 213z"/>
<path style="fill:#c7e5d3; stroke:none;" d="M211 213L212 214L211 213z"/>
<path style="fill:#67b988; stroke:none;" d="M212 213C213.248 213.685 213.548 213.749 215 214C213.752 213.315 213.452 213.251 212 213z"/>
<path style="fill:#c4e3d1; stroke:none;" d="M215 213L216 214L215 213z"/>
<path style="fill:#a1d3b5; stroke:none;" d="M124 214L125 215L124 214z"/>
<path style="fill:#84c69f; stroke:none;" d="M134 214L135 215L134 214z"/>
<path style="fill:#b9dfc8; stroke:none;" d="M182 215L183 216L182 215z"/>
<path style="fill:#70bd90; stroke:none;" d="M123 216L124 217L123 216z"/>
<path style="fill:#a4d5b8; stroke:none;" d="M133 216L134 217L133 216z"/>
<path style="fill:#75bf93; stroke:none;" d="M183 216L184 217L183 216z"/>
<path style="fill:#9fd3b4; stroke:none;" d="M193 216L194 217L193 216z"/>
<path style="fill:#a9d7bc; stroke:none;" d="M122 217L123 218L122 217z"/>
<path style="fill:#94ceac; stroke:none;" d="M184 218L185 219L184 218z"/>
<path style="fill:#6bbb8b; stroke:none;" d="M194 218L195 219L194 218z"/>
<path style="fill:#7ac197; stroke:none;" d="M121 219L122 220L121 219z"/>
<path style="fill:#85c79f; stroke:none;" d="M131 219L132 220L131 219z"/>
<path style="fill:#abd8be; stroke:none;" d="M195 219L196 220L195 219z"/>
<path style="fill:#b1dbc2; stroke:none;" d="M120 220L121 221L120 220z"/>
<path style="fill:#7fc49b; stroke:none;" d="M281 220L281 223C281.696 221.446 281.696 221.554 281 220z"/>
<path style="fill:#bbe0ca; stroke:none;" d="M130 221L131 222L130 221z"/>
<path style="fill:#90cca8; stroke:none;" d="M186 221L187 222L186 221z"/>
<path style="fill:#6aba8b; stroke:none;" d="M196 221L197 222L196 221z"/>
<path style="fill:#81c59c; stroke:none;" d="M129 222L130 223L129 222z"/>
<path style="fill:#afdac1; stroke:none;" d="M197 222L198 223L197 222M118 223L119 224L118 223z"/>
<path style="fill:#c0e2cd; stroke:none;" d="M187 223L188 224L187 223z"/>
<path style="fill:#71bd90; stroke:none;" d="M35 224L35 229C35.8299 226.97 35.8299 226.03 35 224z"/>
<path style="fill:#b2dbc3; stroke:none;" d="M128 224L129 225L128 224z"/>
<path style="fill:#82c59d; stroke:none;" d="M188 224L189 225L188 224z"/>
<path style="fill:#61b683; stroke:none;" d="M289.333 224.667C289.278 224.722 289.222 225.778 289.667 225.333C289.722 225.278 289.778 224.222 289.333 224.667z"/>
<path style="fill:#81c59c; stroke:none;" d="M127 225L128 226L127 225z"/>
<path style="fill:#a7d7bb; stroke:none;" d="M199 225L200 226L199 225z"/>
<path style="fill:#58b27c; stroke:none;" d="M27 226L27 229C27.6961 227.446 27.6961 227.554 27 226z"/>
<path style="fill:#a4d5b8; stroke:none;" d="M116 226L117 227L116 226z"/>
<path style="fill:#c1e2ce; stroke:none;" d="M189 226L190 227L189 226z"/>
<path style="fill:#c7e5d3; stroke:none;" d="M200 226L201 227L200 226z"/>
<path style="fill:#dbeee3; stroke:none;" d="M280 226L280 229C280.696 227.446 280.696 227.554 280 226z"/>
<path style="fill:#93cdaa; stroke:none;" d="M289 226L289 229C289.696 227.446 289.696 227.554 289 226z"/>
<path style="fill:#c8e6d4; stroke:none;" d="M115 227L116 228L115 227z"/>
<path style="fill:#c0e2ce; stroke:none;" d="M126 227L127 228L126 227z"/>
<path style="fill:#8bc9a4; stroke:none;" d="M190 227L191 228L190 227z"/>
<path style="fill:#88c8a2; stroke:none;" d="M125 228L126 229L125 228z"/>
<path style="fill:#7ec399; stroke:none;" d="M201 228L202 229L201 228z"/>
<path style="fill:#7ec39a; stroke:none;" d="M27 229L27 232C27.6961 230.446 27.6961 230.554 27 229z"/>
<path style="fill:#80c49c; stroke:none;" d="M114 229L115 230L114 229z"/>
<path style="fill:#bbe0ca; stroke:none;" d="M202 229L203 230L202 229z"/>
<path style="fill:#a8d7bb; stroke:none;" d="M280.333 229.667C280.278 229.722 280.222 230.778 280.667 230.333C280.722 230.278 280.778 229.222 280.333 229.667z"/>
<path style="fill:#bee0cb; stroke:none;" d="M113 230L114 231L113 230z"/>
<path style="fill:#8dcaa6; stroke:none;" d="M192 230L193 231L192 230z"/>
<path style="fill:#91cca9; stroke:none;" d="M123 231L124 232L123 231z"/>
<path style="fill:#65b887; stroke:none;" d="M193 231L194 232L193 231z"/>
<path style="fill:#71be90; stroke:none;" d="M203 231L204 232L203 231z"/>
<path style="fill:#7fc39b; stroke:none;" d="M280 231L280 234C280.696 232.446 280.696 232.554 280 231z"/>
<path style="fill:#daeee2; stroke:none;" d="M27.3333 232.667C27.2778 232.722 27.2222 233.778 27.6667 233.333C27.7222 233.278 27.7778 232.222 27.3333 232.667z"/>
<path style="fill:#93cdab; stroke:none;" d="M36.3333 232.667C36.2778 232.722 36.2222 233.778 36.6667 233.333C36.7222 233.278 36.7778 232.222 36.3333 232.667z"/>
<path style="fill:#6fbd8e; stroke:none;" d="M112 232L113 233L112 232z"/>
<path style="fill:#b3dcc3; stroke:none;" d="M204 232L205 233L204 232z"/>
<path style="fill:#59b27d; stroke:none;" d="M288 232L288 235C288.696 233.446 288.696 233.554 288 232z"/>
<path style="fill:#acd9be; stroke:none;" d="M111 233L112 234L111 233z"/>
<path style="fill:#add9be; stroke:none;" d="M194 233L195 234L194 233z"/>
<path style="fill:#a7d6ba; stroke:none;" d="M121 234L122 235L121 234z"/>
<path style="fill:#7bc298; stroke:none;" d="M195 234L196 235L195 234z"/>
<path style="fill:#69b98a; stroke:none;" d="M205 234L206 235L205 234z"/>
<path style="fill:#7cc298; stroke:none;" d="M120 235L121 236L120 235z"/>
<path style="fill:#8bc9a5; stroke:none;" d="M206 235L207 236L206 235z"/>
<path style="fill:#a1d3b5; stroke:none;" d="M288 235L288 238C288.696 236.446 288.696 236.554 288 235z"/>
<path style="fill:#95ceac; stroke:none;" d="M28.3333 236.667C28.2778 236.722 28.2222 237.778 28.6667 237.333C28.7222 237.278 28.7778 236.222 28.3333 236.667z"/>
<path style="fill:#cde8d8; stroke:none;" d="M37 236L37 239C37.6961 237.446 37.6961 237.554 37 236z"/>
<path style="fill:#8fcba8; stroke:none;" d="M109 236L110 237L109 236z"/>
<path style="fill:#c7e5d3; stroke:none;" d="M207 236L208 237L207 236z"/>
<path style="fill:#8bcaa4; stroke:none;" d="M279.333 236.667C279.278 236.722 279.222 237.778 279.667 237.333C279.722 237.278 279.778 236.222 279.333 236.667z"/>
<path style="fill:#87c7a1; stroke:none;" d="M197 237L198 238L197 237z"/>
<path style="fill:#d1e9db; stroke:none;" d="M28.3333 238.667C28.2778 238.722 28.2222 239.778 28.6667 239.333C28.7222 239.278 28.7778 238.222 28.3333 238.667z"/>
<path style="fill:#8dcaa6; stroke:none;" d="M118 238L119 239L118 238z"/>
<path style="fill:#8ecaa6; stroke:none;" d="M208 238L209 239L208 238z"/>
<path style="fill:#5db480; stroke:none;" d="M37.3333 239.667C37.2778 239.722 37.2222 240.778 37.6667 240.333C37.7222 240.278 37.7778 239.222 37.3333 239.667z"/>
<path style="fill:#97cfae; stroke:none;" d="M107 239L108 240L107 239z"/>
<path style="fill:#9ed2b3; stroke:none;" d="M199 240L200 241L199 240z"/>
<path style="fill:#b9dfc8; stroke:none;" d="M278 240L278 243C278.696 241.446 278.696 241.554 278 240z"/>
<path style="fill:#acd9be; stroke:none;" d="M287.333 240.667C287.278 240.722 287.222 241.778 287.667 241.333C287.722 241.278 287.778 240.222 287.333 240.667z"/>
<path style="fill:#79c196; stroke:none;" d="M106 241L107 242L106 241z"/>
<path style="fill:#99d0af; stroke:none;" d="M116 241L117 242L116 241z"/>
<path style="fill:#6ebc8d; stroke:none;" d="M200 241L201 242L200 241z"/>
<path style="fill:#acd9be; stroke:none;" d="M210 241L211 242L210 241z"/>
<path style="fill:#88c8a2; stroke:none;" d="M29 242L30 243L29 242z"/>
<path style="fill:#bde0cb; stroke:none;" d="M38 242L39 243L38 242z"/>
<path style="fill:#bfe2cd; stroke:none;" d="M105 242L106 243L105 242z"/>
<path style="fill:#6bba8b; stroke:none;" d="M115 242L116 243L115 242z"/>
<path style="fill:#5ab37e; stroke:none;" d="M38.3333 243.667C38.2778 243.722 38.2222 244.778 38.6667 244.333C38.7222 244.278 38.7778 243.222 38.3333 243.667z"/>
<path style="fill:#6ebc8e; stroke:none;" d="M105 243L106 244L105 243z"/>
<path style="fill:#aad7bc; stroke:none;" d="M201 243L202 244L201 243z"/>
<path style="fill:#9ad0b0; stroke:none;" d="M211 243L212 244L211 243z"/>
<path style="fill:#94ceab; stroke:none;" d="M114 244L115 245L114 244z"/>
<path style="fill:#96cfad; stroke:none;" d="M30.3333 245.667C30.2778 245.722 30.2222 246.778 30.6667 246.333C30.7222 246.278 30.7778 245.222 30.3333 245.667z"/>
<path style="fill:#acd9be; stroke:none;" d="M212 245L213 246L212 245z"/>
<path style="fill:#9dd1b2; stroke:none;" d="M277 245L278 246L277 245z"/>
<path style="fill:#99d0af; stroke:none;" d="M286 245L287 246L286 245z"/>
<path style="fill:#add9bf; stroke:none;" d="M39 246L40 247L39 246M113 246L114 247L113 246z"/>
<path style="fill:#7cc298; stroke:none;" d="M203 246L204 247L203 246z"/>
<path style="fill:#8fcba7; stroke:none;" d="M103 247L104 248L103 247z"/>
<path style="fill:#c2e3cf; stroke:none;" d="M213 247L214 248L213 247z"/>
<path style="fill:#89c8a2; stroke:none;" d="M285 247L285 250C285.696 248.446 285.696 248.554 285 247z"/>
<path style="fill:#b9dfc8; stroke:none;" d="M112 248L113 249L112 248z"/>
<path style="fill:#70bd8f; stroke:none;" d="M204 248L205 249L204 248z"/>
<path style="fill:#b3dcc4; stroke:none;" d="M276 248L277 249L276 248z"/>
<path style="fill:#88c8a2; stroke:none;" d="M31 249L32 250L31 249z"/>
<path style="fill:#98cfae; stroke:none;" d="M40 249L41 250L40 249z"/>
<path style="fill:#b4dcc4; stroke:none;" d="M102 249L103 250L102 249z"/>
<path style="fill:#52af77; stroke:none;" d="M102.333 250.667C102.278 250.722 102.222 251.778 102.667 251.333C102.722 251.278 102.778 250.222 102.333 250.667z"/>
<path style="fill:#a1d4b6; stroke:none;" d="M111 250L112 251L111 250z"/>
<path style="fill:#72be90; stroke:none;" d="M205 250L206 251L205 250z"/>
<path style="fill:#c7e5d3; stroke:none;" d="M275 250L276 251L275 250M41 251L42 252L41 251z"/>
<path style="fill:#85c79f; stroke:none;" d="M214 251L215 252L214 251z"/>
<path style="fill:#8ac9a4; stroke:none;" d="M275 251L276 252L275 251z"/>
<path style="fill:#88c8a2; stroke:none;" d="M284 251L285 252L284 251z"/>
<path style="fill:#85c7a0; stroke:none;" d="M32 252L33 253L32 252z"/>
<path style="fill:#a5d6b9; stroke:none;" d="M110.333 252.667C110.278 252.722 110.222 253.778 110.667 253.333C110.722 253.278 110.778 252.222 110.333 252.667z"/>
<path style="fill:#81c49c; stroke:none;" d="M101.333 253.667C101.278 253.722 101.222 254.778 101.667 254.333C101.722 254.278 101.778 253.222 101.333 253.667z"/>
<path style="fill:#68b988; stroke:none;" d="M206 253L207 254L206 253z"/>
<path style="fill:#b3dcc3; stroke:none;" d="M215 253L215 256C215.696 254.446 215.696 254.554 215 253z"/>
<path style="fill:#98cfaf; stroke:none;" d="M274 253L275 254L274 253z"/>
<path style="fill:#69ba8a; stroke:none;" d="M33 254L34 255L33 254z"/>
<path style="fill:#81c59c; stroke:none;" d="M42 254L43 255L42 254z"/>
<path style="fill:#9cd1b1; stroke:none;" d="M283 254L284 255L283 254z"/>
<path style="fill:#a7d6ba; stroke:none;" d="M273 255L274 256L273 255z"/>
<path style="fill:#64b786; stroke:none;" d="M43 256L44 257L43 256z"/>
<path style="fill:#a8d7bb; stroke:none;" d="M44 256C49.2165 258.189 56.3809 257 62 257L101 257C95.7835 254.811 88.6191 256 83 256L44 256z"/>
<path style="fill:#9dd1b2; stroke:none;" d="M109.333 256.667C109.278 256.722 109.222 257.778 109.667 257.333C109.722 257.278 109.778 256.222 109.333 256.667z"/>
<path style="fill:#5cb37f; stroke:none;" d="M207 256L207 259C207.696 257.446 207.696 257.554 207 256z"/>
<path style="fill:#a8d7bb; stroke:none;" d="M216 256C221.217 258.189 228.381 257 234 257L273 257C267.784 254.811 260.619 256 255 256L216 256z"/>
<path style="fill:#8ac9a4; stroke:none;" d="M282 256L283 257L282 256z"/>
<path style="fill:#a1d3b5; stroke:none;" d="M34 257L35 258L34 257z"/>
<path style="fill:#eef7f2; stroke:none;" d="M109 258L109 277C111.02 272.187 111.02 262.813 109 258z"/>
<path style="fill:#6ebc8d; stroke:none;" d="M281 258L282 259L281 258z"/>
<path style="fill:#9ed2b3; stroke:none;" d="M35 259L36 260L35 259z"/>
<path style="fill:#97cfad; stroke:none;" d="M207 259L207 262C207.696 260.446 207.696 260.554 207 259z"/>
<path style="fill:#53b078; stroke:none;" d="M108 260L108 278C109.952 273.349 109.952 264.651 108 260z"/>
<path style="fill:#88c8a1; stroke:none;" d="M280 260L281 261L280 260z"/>
<path style="fill:#e9f5ee; stroke:none;" d="M36 261L36 278C37.8826 273.514 37.8826 265.486 36 261z"/>
<path style="fill:#44a86d; stroke:none;" d="M37 262L37 278C38.8123 273.681 38.8123 266.319 37 262z"/>
<path style="fill:#d0eada; stroke:none;" d="M207 262L207 277C208.74 272.852 208.74 266.148 207 262z"/>
<path style="fill:#62b684; stroke:none;" d="M279 262L279 277C280.74 272.852 280.74 266.148 279 262z"/>
<path style="fill:#8fcba7; stroke:none;" d="M45 265L45 272C46.0595 269.466 46.0595 267.534 45 265z"/>
<path style="fill:#e2f2e9; stroke:none;" d="M46 265C51.2165 267.189 58.3809 266 64 266L100 266C94.7835 263.811 87.6191 265 82 265L46 265z"/>
<path style="fill:#7ac297; stroke:none;" d="M100 265L100 272C101.059 269.466 101.059 267.534 100 265z"/>
<path style="fill:#add9bf; stroke:none;" d="M216 265L216 272C217.059 269.466 217.059 267.534 216 265z"/>
<path style="fill:#e2f2e9; stroke:none;" d="M217 265C222.216 267.189 229.381 266 235 266L271 266C265.784 263.811 258.619 265 253 265L217 265z"/>
<path style="fill:#43a86c; stroke:none;" d="M271 265L271 272C272.059 269.466 272.059 267.534 271 265z"/>
<path style="fill:#ffffff; stroke:none;" d="M46 266L46 271L100 271L100 266L46 266M217 266L217 271L271 271L271 266L217 266z"/>
<path style="fill:#e1f1e8; stroke:none;" d="M46 271C51.2165 273.189 58.3809 272 64 272L100 272C94.7835 269.811 87.6191 271 82 271L46 271M217 271C222.216 273.189 229.381 272 235 272L271 272C265.784 269.811 258.619 271 253 271L217 271z"/>
<path style="fill:#37a362; stroke:none;" d="M45 272C50.2165 274.189 57.3809 273 63 273L100 273C94.7835 270.811 87.6191 272 82 272L45 272M216 272C221.217 274.189 228.381 273 234 273L271 273C265.784 270.811 258.619 272 253 272L216 272z"/>
<path style="fill:#9ad1b0; stroke:none;" d="M279 277L280 278L279 277z"/>
<path style="fill:#abd8bd; stroke:none;" d="M37 278L38 279L37 278z"/>
<path style="fill:#c6e4d2; stroke:none;" d="M108 278L109 279L108 278z"/>
<path style="fill:#94cdab; stroke:none;" d="M208 278L209 279L208 278z"/>
<path style="fill:#93cdaa; stroke:none;" d="M38 279L39 280L38 279z"/>
<path style="fill:#aad7bc; stroke:none;" d="M107 279L108 280L107 279z"/>
<path style="fill:#76c094; stroke:none;" d="M209 279L210 280L209 279z"/>
<path style="fill:#bbdfca; stroke:none;" d="M278 279L279 280L278 279z"/>
<path style="fill:#93cdab; stroke:none;" d="M40 280C45.951 282.497 54.5798 281 61 281L106 281C100.049 278.503 91.4202 280 85 280L40 280M211 280C216.951 282.497 225.58 281 232 281L277 281C271.049 278.503 262.42 280 256 280L211 280z"/>
</svg>
